<svg display="none" xmlns="http://www.w3.org/2000/svg" xmlns:xlink="http://www.w3.org/1999/xlink">
    <symbol id="search" viewBox="0 0 14 15" fill="none">
        <g clip-path="url(#clip0_21068_66424)">
            <path d="M13.5352 13.2438L10.3141 10.0227C11.1125 9.04922 11.5938 7.80234 11.5938 6.44336C11.5938 3.32617 9.06445 0.796875 5.94727 0.796875C2.82734 0.796875 0.300781 3.32617 0.300781 6.44336C0.300781 9.56055 2.82734 12.0898 5.94727 12.0898C7.30625 12.0898 8.55039 11.6113 9.52383 10.8129L12.7449 14.0312C12.9637 14.25 13.3164 14.25 13.5352 14.0312C13.7539 13.8152 13.7539 13.4598 13.5352 13.2438ZM5.94727 10.966C3.45078 10.966 1.42188 8.93711 1.42188 6.44336C1.42188 3.94961 3.45078 1.91797 5.94727 1.91797C8.44102 1.91797 10.4727 3.94961 10.4727 6.44336C10.4727 8.93711 8.44102 10.966 5.94727 10.966Z" fill="#808080"/>
        </g>
        <defs>
            <clipPath id="clip0_21068_66424">
                <rect width="14" height="14" fill="white" transform="translate(0 0.5)"/>
            </clipPath>
        </defs>
    </symbol>
    <symbol id="left" viewBox="0 0 12 22" fill="none">
        <path d="M10.5 2L1.5 11L10.5 20" stroke="#B57FFF" stroke-width="3" stroke-linecap="round" stroke-linejoin="round"/>
    </symbol>
    <symbol id="chat" viewBox="0 0 65 64" fill="none">
        <path fill-rule="evenodd" clip-rule="evenodd" d="M55.7794 45.0163L58.2947 53.3363C59.3639 56.8728 57.3655 58.8624 53.8358 57.7952L45.5158 55.2799C41.666 57.437 37.2265 58.6668 32.4997 58.6668C17.7721 58.6668 5.83301 46.7278 5.83301 32.0002C5.83301 17.2726 17.7721 5.3335 32.4997 5.3335C47.2273 5.3335 59.1663 17.2726 59.1663 32.0002C59.1663 36.727 57.9365 41.1665 55.7794 45.0163Z" fill="#7F7780"/>
    </symbol>
    <symbol id="sort" viewBox="0 0 21 15" fill="none">
        <path d="M7.18798 9.91609C7.15147 10.0044 7.09797 10.0847 7.03054 10.1522C6.96328 10.22 6.88337 10.2737 6.7954 10.3104C6.70743 10.347 6.61312 10.3659 6.51787 10.3659C6.42263 10.3659 6.32832 10.347 6.24035 10.3104C6.15237 10.2737 6.07247 10.22 6.00521 10.1522L3.62145 7.7568L1.23769 10.1522C1.17036 10.2199 1.09044 10.2735 1.00247 10.3101C0.914511 10.3467 0.820232 10.3655 0.725021 10.3655C0.62981 10.3655 0.535531 10.3467 0.447567 10.3101C0.359604 10.2735 0.279678 10.2199 0.212354 10.1522C0.145029 10.0846 0.0916247 10.0044 0.055189 9.91602C0.0187532 9.82768 0 9.733 0 9.63738C0 9.54176 0.0187532 9.44707 0.055189 9.35873C0.0916247 9.27039 0.145029 9.19012 0.212354 9.12251L3.10878 6.21365C3.17604 6.14593 3.25595 6.0922 3.34392 6.05554C3.43189 6.01888 3.5262 6.00001 3.62145 6.00001C3.71669 6.00001 3.811 6.01888 3.89897 6.05554C3.98695 6.0922 4.06685 6.14593 4.13411 6.21365L7.03054 9.12251C7.09797 9.19006 7.15147 9.27031 7.18798 9.35866C7.22448 9.44701 7.24327 9.54172 7.24327 9.63738C7.24327 9.73303 7.22448 9.82774 7.18798 9.91609Z" fill="currentColor"/>
        <path d="M0.0553073 3.4498C0.0918115 3.36145 0.145313 3.2812 0.212746 3.21365C0.280009 3.14592 0.359915 3.09219 0.447887 3.05553C0.535859 3.01887 0.630169 3 0.725414 3C0.820659 3 0.914968 3.01887 1.00294 3.05553C1.09091 3.09219 1.17082 3.14592 1.23808 3.21365L3.62184 5.60909L6.0056 3.21365C6.07292 3.14603 6.15285 3.0924 6.24081 3.05581C6.32878 3.01922 6.42305 3.00038 6.51827 3.00038C6.61348 3.00038 6.70776 3.01922 6.79572 3.05581C6.88368 3.0924 6.96361 3.14603 7.03093 3.21365C7.09826 3.28126 7.15166 3.36153 7.1881 3.44987C7.22453 3.53821 7.24329 3.63289 7.24329 3.72851C7.24329 3.82413 7.22453 3.91882 7.1881 4.00716C7.15166 4.0955 7.09826 4.17577 7.03093 4.24338L4.13451 7.15224C4.06724 7.21996 3.98734 7.27369 3.89937 7.31035C3.81139 7.34701 3.71708 7.36588 3.62184 7.36588C3.52659 7.36588 3.43228 7.34701 3.34431 7.31035C3.25634 7.27369 3.17643 7.21996 3.10917 7.15224L0.212746 4.24338C0.145313 4.17583 0.0918115 4.09558 0.0553072 4.00723C0.0188025 3.91888 1.31842e-05 3.82417 1.31926e-05 3.72851C1.3201e-05 3.63286 0.0188025 3.53815 0.0553073 3.4498Z" fill="currentColor"/>
        <path d="M9.21209 8.93956C9.07629 9.07594 9 9.26091 9 9.45378C9 9.64665 9.07629 9.83162 9.21209 9.968C9.34788 10.1044 9.53206 10.181 9.72411 10.181H14.0687C14.2608 10.181 14.445 10.1044 14.5808 9.968C14.7166 9.83162 14.7929 9.64665 14.7929 9.45378C14.7929 9.26091 14.7166 9.07594 14.5808 8.93956C14.445 8.80318 14.2608 8.72656 14.0687 8.72656H9.72411C9.53206 8.72656 9.34788 8.80318 9.21209 8.93956Z" fill="currentColor"/>
        <path d="M9.21209 4.57628C9.07629 4.71266 9 4.89763 9 5.0905C9 5.28336 9.07629 5.46833 9.21209 5.60471C9.34788 5.74109 9.53206 5.81771 9.72411 5.81771H16.9652C17.1572 5.81771 17.3414 5.74109 17.4772 5.60471C17.613 5.46833 17.6893 5.28336 17.6893 5.0905C17.6893 4.89763 17.613 4.71266 17.4772 4.57628C17.3414 4.4399 17.1572 4.36328 16.9652 4.36328H9.72411C9.53206 4.36328 9.34788 4.4399 9.21209 4.57628Z" fill="currentColor"/>
        <path d="M9.21209 0.212996C9.07629 0.349375 9 0.534345 9 0.727214C9 0.920083 9.07629 1.10505 9.21209 1.24143C9.34788 1.37781 9.53206 1.45443 9.72411 1.45443H19.8616C20.0536 1.45443 20.2378 1.37781 20.3736 1.24143C20.5094 1.10505 20.5857 0.920083 20.5857 0.727214C20.5857 0.534345 20.5094 0.349375 20.3736 0.212996C20.2378 0.0766171 20.0536 0 19.8616 0H9.72411C9.53206 0 9.34788 0.0766171 9.21209 0.212996Z" fill="currentColor"/>
        <path d="M9.21209 13.3028C9.07629 13.4392 9 13.6242 9 13.8171C9 14.0099 9.07629 14.1949 9.21209 14.3313C9.34788 14.4677 9.53206 14.5443 9.72411 14.5443H11.1723C11.3644 14.5443 11.5485 14.4677 11.6843 14.3313C11.8201 14.1949 11.8964 14.0099 11.8964 13.8171C11.8964 13.6242 11.8201 13.4392 11.6843 13.3028C11.5485 13.1665 11.3644 13.0898 11.1723 13.0898H9.72411C9.53206 13.0898 9.34788 13.1665 9.21209 13.3028Z" fill="currentColor"/>
    </symbol>
</svg>
